<svg xmlns="http://www.w3.org/2000/svg" width="735" height="735" viewBox="0 0 735 735"><g fill="none" transform="translate(5.338 5.47)"><path fill="#6B2975" stroke="#FFCEFB" stroke-width="10" d="M351.261977,-2.84217094e-14 C458.811977,0.17 551.621977,38.12 621.141977,109.21 C685.681977,175.23 724.821977,265.3 724.201977,364.37 C722.961977,562.26 562.661977,725.43 359.731977,724.216797 C159.051977,723 -0.648022859,559.9 0,360.67 C0.311977141,265.59 37.6819771,172.63 108.881977,103.51 C179.291977,35.17 264.181977,1.39 351.261977,-2.84217094e-14"/><path fill="#8CC63F" d="M435.061977,133.71 C437.421977,131.23 439.711977,128.66 442.251977,126.33 C450.721977,118.55 460.151977,112.34 471.151977,108.76 C487.121977,103.56 502.541977,105.31 517.641977,112.33 C524.101977,115.33 529.121977,119.96 533.801977,125.07 C543.391977,135.53 550.491977,147.44 554.241977,161.19 C558.441977,176.6 557.671977,191.92 552.911977,207.08 C548.891977,219.86 542.481977,231.42 534.691977,242.25 C524.401977,256.53 512.201977,269.04 498.981977,280.6 C479.951977,297.24 459.241977,311.54 437.831977,324.89 C435.621977,326.27 434.161977,326.28 431.921977,324.88 C413.511977,313.41 395.601977,301.24 378.821977,287.47 C363.991977,275.3 350.171977,262.12 338.411977,246.9 C329.741977,235.66 322.481977,223.63 317.741977,210.17 C313.821977,199.05 312.011977,187.62 312.881977,175.84 C313.821977,163.16 317.821977,151.43 324.371977,140.56 C329.131977,132.65 334.991977,125.63 341.751977,119.33 C344.941977,116.35 348.571977,114.12 352.481977,112.27 C362.081977,107.74 372.141977,105.29 382.791977,105.79 C393.441977,106.29 403.251977,109.58 412.411977,114.95 C420.271977,119.56 427.181977,125.31 433.301977,132.05 C433.731977,132.52 434.161977,132.98 434.601977,133.44 C434.701977,133.54 434.851977,133.59 435.061977,133.71"/><path fill="#FFF" d="M378.241977 580.81C377.131977 581.81 376.061977 582.83 374.941977 583.79 368.071977 589.65 360.121977 593.26 351.281977 594.93 340.371977 596.99 329.611977 596.36 319.181977 592.5 306.481977 587.8 297.381977 578.99 291.061977 567.15 286.661977 558.91 284.091977 550.07 282.691977 540.87 280.901977 529.14 280.871977 517.38 282.351977 505.63 283.921977 493.11 287.371977 481.17 294.181977 470.42 302.501977 457.29 314.081977 448.6 329.421977 445.43 341.621977 442.91 353.561977 443.55 364.881977 449.35 368.031977 450.96 370.951977 452.94 373.721977 455.14 374.131977 455.47 374.431977 456.03 375.301977 455.97L375.301977 453.71C375.301977 431.75 375.301977 409.79 375.301977 387.82 375.301977 384.25 375.681977 383.84 379.291977 383.19 382.361977 382.63 385.481977 382.64 388.571977 382.55 394.711977 382.39 400.851977 382.42 406.981977 382.91 408.391977 383.02 409.791977 383.21 411.131977 383.7 412.761977 384.3 413.221977 384.96 413.271977 386.68 413.291977 387.24 413.271977 387.81 413.271977 388.37 413.271977 443.8 413.271977 499.24 413.271977 554.67 413.271977 556.01 413.321977 557.35 413.561977 558.68 414.081977 561.53 415.321977 562.81 418.181977 563.49 419.291977 563.76 420.411977 563.76 421.541977 563.8 423.481977 563.87 424.251977 564.46 424.561977 566.36 424.801977 567.82 424.961977 569.31 424.971977 570.78 424.981977 576 425.191977 581.23 424.651977 586.44 424.581977 587.14 424.421977 587.83 424.281977 588.52 424.001977 589.98 423.121977 590.84 421.711977 591.32 418.361977 592.47 414.931977 593.28 411.431977 593.73 406.671977 594.35 401.881977 594.69 397.091977 593.94 388.931977 592.68 382.501977 588.91 378.691977 581.32 378.601977 581.15 378.421977 581.01 378.241977 580.81M271.861977 217.19C271.861977 240.99 271.861977 264.78 271.861977 288.58 271.861977 291.47 271.611977 291.14 274.501977 291.15 279.091977 291.16 283.681977 291.15 288.271977 291.15 288.621977 291.15 288.981977 291.15 289.331977 291.15 292.881977 291.2 293.701977 291.99 294.181977 295.57 294.601977 298.73 294.581977 301.91 294.541977 305.08 294.481977 310.09 294.811977 315.11 294.191977 320.1 294.151977 320.38 294.141977 320.66 294.101977 320.94 293.631977 324.25 292.771977 324.99 289.401977 324.99 260.591977 324.99 231.781977 324.99 202.971977 324.99 202.481977 324.99 201.981977 324.98 201.491977 324.96 200.141977 324.91 199.261977 324.21 198.811977 322.94 198.281977 321.46 198.081977 319.92 198.031977 318.37 197.791977 311.45 197.801977 304.54 198.021977 297.62 198.061977 296.22 198.261977 294.81 198.691977 293.46 199.121977 292.11 199.951977 291.29 201.431977 291.24 202.491977 291.21 203.541977 291.14 204.601977 291.14 209.331977 291.13 214.061977 291.14 218.791977 291.13 220.441977 291.13 220.441977 291.1 220.471977 289.54 220.481977 289.19 220.471977 288.83 220.471977 288.48 220.471977 240.96 220.471977 193.43 220.461977 145.91 220.461977 142.97 220.861977 143.4 217.851977 143.38 212.771977 143.35 207.681977 143.38 202.601977 143.37 199.791977 143.36 198.861977 142.54 198.341977 139.75 197.961977 137.73 197.891977 135.68 197.891977 133.64 197.881977 128.13 197.891977 122.62 197.971977 117.12 197.991977 115.58 198.201977 114.02 198.511977 112.5 198.971977 110.27 199.921977 109.57 202.191977 109.48 202.751977 109.46 203.321977 109.47 203.891977 109.47L288.631977 109.47C288.981977 109.47 289.341977 109.47 289.691977 109.47 292.761977 109.51 293.691977 110.3 294.101977 113.37 294.401977 115.61 294.571977 117.86 294.551977 120.12 294.521977 125.2 294.521977 130.29 294.471977 135.37 294.451977 136.99 294.281977 138.61 293.901977 140.19 293.321977 142.63 292.411977 143.34 289.891977 143.34 284.661977 143.36 279.441977 143.35 274.211977 143.35 273.721977 143.35 273.221977 143.36 272.731977 143.36 272.101977 143.35 271.851977 143.68 271.861977 144.28 271.871977 144.85 271.861977 145.41 271.861977 145.98 271.861977 169.74 271.861977 193.47 271.861977 217.19M176.041977 461.15C177.101977 460.11 177.991977 459.23 178.901977 458.37 186.741977 450.99 196.071977 446.54 206.641977 444.86 216.901977 443.23 227.081977 443.9 236.921977 447.38 251.641977 452.58 260.601977 463.17 264.831977 477.98 266.781977 484.81 267.511977 491.83 267.611977 498.9 268.011977 528.62 267.691977 558.35 267.781977 588.07 267.791977 590.98 267.141977 591.83 264.271977 592.42 262.691977 592.75 261.061977 592.93 259.441977 593 252.101977 593.34 244.771977 593.29 237.431977 593 235.531977 592.92 233.631977 592.71 231.791977 592.17 230.431977 591.77 229.621977 590.92 229.661977 589.41 229.681977 588.78 229.651977 588.14 229.651977 587.5 229.651977 561.16 229.681977 534.82 229.621977 508.48 229.611977 503.69 229.351977 498.9 228.551977 494.15 227.151977 485.82 222.331977 480.8 214.151977 478.94 206.601977 477.23 199.171977 477.79 191.831977 480.18 183.841977 482.78 179.781977 488.28 179.291977 496.63 178.981977 501.92 178.801977 507.2 178.791977 512.5 178.771977 537.43 178.781977 562.35 178.781977 587.28 178.781977 587.77 178.791977 588.27 178.781977 588.76 178.721977 590.8 178.201977 591.56 176.261977 592.15 173.811977 592.9 171.261977 592.99 168.721977 593.08 162.021977 593.3 155.311977 593.27 148.611977 592.99 147.061977 592.93 145.511977 592.75 143.991977 592.47 141.251977 591.96 140.731977 591.25 140.731977 588.49 140.731977 563.28 140.721977 538.07 140.731977 512.86 140.731977 501.29 140.491977 489.71 140.091977 478.15 139.791977 469.41 139.471977 460.67 138.711977 451.95 138.491977 449.39 139.261977 448.28 141.751977 447.67 144.301977 447.05 146.911977 446.89 149.521977 446.88 155.731977 446.87 161.941977 446.55 168.141977 447.19 168.561977 447.23 168.991977 447.25 169.401977 447.32 172.681977 447.84 173.821977 448.82 174.491977 452.07 175.111977 455 175.511977 457.94 176.041977 461.15M549.801977 444.11C561.951977 444.11 573.641977 446.23 584.681977 451.49 588.261977 453.2 591.641977 455.23 594.821977 457.59 596.901977 459.14 597.261977 460.23 596.491977 462.69 595.891977 464.59 594.961977 466.34 593.951977 468.03 591.611977 471.97 589.201977 475.87 586.781977 479.77 586.041977 480.97 585.181977 482.09 584.121977 483.05 582.581977 484.45 581.311977 484.64 579.521977 483.59 577.151977 482.2 574.791977 480.79 572.311977 479.58 565.671977 476.35 558.651977 474.62 551.281977 474.63 546.341977 474.64 541.421977 475.09 536.791977 477.14 534.891977 477.98 533.231977 479.13 531.841977 480.68 528.031977 484.95 528.501977 490.71 532.941977 494.31 535.271977 496.2 537.951977 497.45 540.721977 498.54 546.241977 500.71 551.961977 502.25 557.611977 504 564.421977 506.11 571.161977 508.38 577.521977 511.65 582.581977 514.25 587.221977 517.42 591.071977 521.65 596.401977 527.49 599.271977 534.45 599.971977 542.26 601.211977 556.19 597.281977 568.5 587.881977 578.92 581.451977 586.04 573.321977 590.39 564.191977 593.02 557.711977 594.89 551.081977 595.74 544.361977 595.98 533.271977 596.38 522.391977 595.1 511.801977 591.7 503.821977 589.14 496.351977 585.54 489.761977 580.26 487.231977 578.24 486.871977 577.07 487.821977 574.02 487.951977 573.62 488.081977 573.21 488.251977 572.83 490.961977 566.92 494.101977 561.25 497.731977 555.86 498.001977 555.45 498.331977 555.07 498.651977 554.7 500.931977 552.1 502.231977 551.92 505.171977 553.8 513.331977 559.03 522.081977 562.83 531.681977 564.45 538.801977 565.65 545.881977 565.5 552.821977 563.26 555.121977 562.52 557.241977 561.42 559.121977 559.87 564.421977 555.49 564.241977 548.64 558.691977 544.56 555.171977 541.97 551.081977 540.59 546.981977 539.27 540.411977 537.16 533.691977 535.49 527.161977 533.25 520.001977 530.79 513.081977 527.83 507.001977 523.2 498.181977 516.49 493.481977 507.55 492.341977 496.59 491.541977 488.95 492.261977 481.5 495.101977 474.35 498.781977 465.09 505.211977 458.15 513.691977 453.06 521.501977 448.38 530.021977 445.85 539.011977 444.71 542.611977 444.26 546.201977 444.09 549.801977 444.11M439.711977 519.94 439.711977 453.66C439.711977 453.24 439.711977 452.81 439.711977 452.39 439.721977 448.61 440.141977 447.99 443.901977 447.44 446.401977 447.08 448.961977 446.92 451.491977 446.91 458.191977 446.87 464.901977 446.6 471.591977 447.23 472.931977 447.35 474.241977 447.57 475.531977 447.96 476.991977 448.4 477.781977 449.35 477.791977 450.9 477.791977 451.46 477.801977 452.03 477.801977 452.59 477.801977 497.55 477.801977 542.51 477.801977 587.47 477.801977 591.35 477.141977 592.06 473.291977 592.65 470.701977 593.05 468.091977 593.12 465.481977 593.15 458.361977 593.24 451.231977 593.48 444.131977 592.66 443.851977 592.63 443.571977 592.62 443.291977 592.57 440.411977 592.05 439.731977 591.28 439.721977 588.33 439.701977 577.74 439.711977 567.16 439.711977 556.57L439.711977 519.94Z"/><path fill="#8CC63F" d="M458.161977,431.24 C444.691977,431.23 433.681977,420.25 433.771977,406.93 C433.861977,393.36 444.811977,382.41 458.351977,382.54 C473.171977,382.68 482.961977,394.95 482.721977,407.34 C482.481977,420.37 471.561977,431.52 458.161977,431.24"/><path fill="#6B2976" d="M375.301977,518.65 C375.301977,526.13 375.341977,533.61 375.281977,541.09 C375.261977,543.76 375.161977,546.44 374.701977,549.09 C373.941977,553.55 371.671977,556.9 367.731977,559.15 C363.811977,561.39 359.581977,562.66 355.131977,563.2 C349.601977,563.87 344.151977,563.46 338.871977,561.54 C332.901977,559.38 328.841977,555.17 325.971977,549.65 C323.471977,544.84 322.051977,539.69 321.311977,534.36 C319.891977,524.15 320.211977,513.97 322.111977,503.84 C322.881977,499.74 324.091977,495.77 325.931977,492.01 C330.941977,481.78 339.201977,476.81 350.521977,476.879271 C360.541977,476.95 368.301977,481.59 374.691977,488.96 C375.331977,489.7 375.291977,490.49 375.291977,491.33 C375.291977,497.75 375.291977,504.17 375.291977,510.59 L375.291977,518.65 L375.301977,518.65 Z"/></g></svg>