<svg xmlns="http://www.w3.org/2000/svg" xmlns:xlink="http://www.w3.org/1999/xlink" width="500" zoomAndPan="magnify" viewBox="0 0 375 374.999991" height="500" preserveAspectRatio="xMidYMid meet" version="1.0"><defs><clipPath id="14051c7724"><path d="M 148 14.53125 L 224 14.53125 L 224 90 L 148 90 Z M 148 14.53125 " clip-rule="nonzero"/></clipPath></defs><g clip-path="url(#14051c7724)"><path fill="#2794d1" d="M 186.34375 89.734375 C 207.167969 89.734375 223.945312 72.957031 223.945312 52.132812 C 223.945312 31.308594 207.167969 14.53125 186.34375 14.53125 C 165.515625 14.53125 148.742188 31.308594 148.742188 52.132812 C 148.742188 72.957031 165.515625 89.734375 186.34375 89.734375 Z M 186.34375 89.734375 " fill-opacity="1" fill-rule="nonzero"/></g><path fill="#2794d1" d="M 107.667969 179.980469 C 98.414062 161.757812 101.304688 138.90625 116.054688 123.867188 C 125.023438 114.898438 136.59375 109.980469 149.03125 109.980469 C 161.46875 109.980469 173.328125 114.898438 182.003906 123.867188 C 184.316406 126.179688 188.078125 126.179688 190.390625 123.867188 C 199.070312 114.898438 210.929688 109.980469 223.367188 109.980469 C 235.804688 109.980469 247.664062 114.898438 256.339844 123.867188 C 274.5625 142.667969 274.5625 173.039062 256.339844 191.839844 L 244.191406 204.277344 C 246.21875 204.277344 248.242188 203.988281 249.976562 203.410156 C 254.894531 201.960938 259.234375 201.09375 263.570312 200.804688 L 264.4375 199.9375 C 287 176.796875 287 138.90625 264.4375 115.765625 C 253.449219 104.488281 238.695312 98.414062 223.078125 98.414062 C 209.484375 98.414062 196.464844 103.328125 186.054688 112.007812 C 175.640625 103.039062 162.625 98.414062 149.03125 98.414062 C 133.410156 98.414062 118.660156 104.488281 107.667969 115.765625 C 89.734375 133.988281 85.976562 161.179688 96.386719 183.449219 C 100.4375 182.292969 103.90625 181.136719 107.667969 179.980469 Z M 107.667969 179.980469 " fill-opacity="1" fill-rule="nonzero"/><path fill="#2794d1" d="M 370.59375 238.695312 C 367.410156 231.175781 356.417969 230.597656 352.660156 231.753906 C 352.371094 231.753906 351.210938 232.042969 350.34375 232.042969 C 344.847656 232.910156 332.992188 234.359375 309.5625 245.925781 C 280.347656 260.390625 249.109375 274.851562 215.265625 277.457031 C 185.476562 279.769531 167.253906 262.414062 164.359375 259.234375 C 162.335938 255.183594 162.046875 252.871094 162.914062 252 C 165.226562 249.109375 179.113281 247.375 207.167969 254.605469 C 245.347656 265.308594 265.308594 246.214844 267.621094 243.613281 C 274.851562 236.960938 284.109375 226.835938 279.191406 218.449219 C 274.851562 210.929688 262.992188 211.507812 253.449219 214.398438 C 243.613281 217.292969 233.199219 215.265625 223.945312 212.664062 C 214.109375 210.0625 204.566406 206.300781 195.019531 202.828125 C 181.425781 197.625 167.542969 192.417969 152.789062 189.8125 C 128.203125 185.1875 103.328125 190.390625 78.742188 204.855469 C 58.207031 217.003906 41.140625 233.199219 28.992188 252 C 3.25 291.917969 0.0703125 322.289062 1.515625 340.511719 C 1.804688 345.140625 4.984375 348.609375 9.324219 349.765625 C 10.191406 350.054688 11.058594 350.054688 11.929688 350.054688 C 15.6875 350.054688 19.160156 348.320312 21.183594 345.140625 C 23.789062 341.089844 24.078125 339.933594 24.945312 336.460938 C 24.945312 335.882812 25.234375 335.015625 25.523438 334.148438 C 28.414062 323.15625 35.644531 312.453125 44.613281 307.535156 L 45.480469 307.246094 C 58.207031 300.304688 70.066406 305.222656 95.519531 317.082031 C 106.222656 322.289062 119.816406 328.363281 136.304688 334.726562 C 211.507812 360.46875 264.148438 328.941406 297.125 303.199219 C 324.601562 281.792969 356.128906 260.390625 356.128906 260.390625 C 361.335938 256.917969 374.929688 248.53125 370.59375 238.695312 Z M 370.59375 238.695312 " fill-opacity="1" fill-rule="nonzero"/></svg>