<svg xmlns="http://www.w3.org/2000/svg" xmlns:xlink="http://www.w3.org/1999/xlink" width="500" zoomAndPan="magnify" viewBox="0 0 375 374.999991" height="500" preserveAspectRatio="xMidYMid meet" version="1.0"><defs><clipPath id="8efd41f3fc"><path d="M 155 0 L 364.828125 0 L 364.828125 209 L 155 209 Z M 155 0 " clip-rule="nonzero"/></clipPath></defs><path fill="#e7e626" d="M 88.027344 205.109375 C 85.410156 196.238281 84.082031 186.855469 84.082031 177.160156 C 84.082031 120.007812 130.679688 73.527344 187.792969 73.527344 C 204.796875 73.527344 221.0625 77.667969 235.171875 85.019531 L 253.742188 66.449219 C 234.390625 54.957031 211.875 48.195312 187.792969 48.195312 C 116.527344 48.195312 58.828125 106.089844 58.828125 177.160156 C 58.828125 190.609375 60.859375 203.546875 64.730469 215.746094 C 70.59375 209.136719 78.921875 205.308594 88.027344 205.109375 Z M 88.027344 205.109375 " fill-opacity="1" fill-rule="nonzero"/><path fill="#e7e626" d="M 279.816406 129.898438 C 287.050781 144.125 291.308594 160.15625 291.308594 177.160156 C 291.308594 234.3125 244.90625 280.792969 187.753906 280.792969 L 186.308594 280.792969 C 187.480469 289.667969 184.9375 298.699219 179.074219 305.734375 C 181.96875 306.007812 184.859375 306.125 187.792969 306.125 C 258.863281 306.125 316.5625 248.308594 316.5625 177.160156 C 316.5625 153.195312 309.996094 130.5625 298.386719 111.328125 Z M 279.816406 129.898438 " fill-opacity="1" fill-rule="nonzero"/><path fill="#e7e626" d="M 187.753906 122.195312 C 190.921875 122.195312 194.085938 122.429688 197.097656 123.09375 L 217.464844 102.726562 C 208.238281 98.9375 198.230469 96.902344 187.753906 96.902344 C 143.382812 96.902344 107.339844 132.945312 107.339844 177.160156 C 107.339844 221.53125 143.382812 257.574219 187.753906 257.574219 C 231.96875 257.574219 268.011719 221.53125 268.011719 177.160156 C 268.011719 166.683594 265.976562 156.675781 262.1875 147.449219 L 241.820312 167.816406 C 242.445312 170.867188 242.71875 174.03125 242.71875 177.160156 C 242.71875 207.496094 218.050781 232.28125 187.714844 232.28125 C 157.378906 232.28125 132.59375 207.496094 132.59375 177.160156 C 132.632812 146.824219 157.417969 122.195312 187.753906 122.195312 Z M 187.753906 122.195312 " fill-opacity="1" fill-rule="nonzero"/><g clip-path="url(#8efd41f3fc)"><path fill="#e7e626" d="M 363.476562 41.195312 C 361.988281 37.636719 358.550781 35.332031 354.71875 35.332031 L 329.582031 35.332031 L 329.582031 10.234375 C 329.582031 6.402344 327.277344 2.925781 323.71875 1.476562 C 320.160156 0.03125 316.09375 0.8125 313.398438 3.550781 L 287.441406 29.507812 C 285.679688 31.304688 284.664062 33.691406 284.664062 36.191406 L 284.664062 62.421875 L 199.285156 147.722656 C 195.691406 146.316406 191.78125 145.457031 187.714844 145.457031 C 170.242188 145.457031 155.972656 159.6875 155.972656 177.199219 C 155.972656 194.710938 170.203125 208.902344 187.714844 208.902344 C 205.226562 208.902344 219.417969 194.671875 219.417969 177.199219 C 219.417969 173.09375 218.558594 169.222656 217.152344 165.628906 L 302.492188 80.289062 L 328.722656 80.289062 C 331.222656 80.289062 333.648438 79.273438 335.40625 77.511719 L 361.363281 51.554688 C 364.101562 48.820312 364.921875 44.753906 363.476562 41.195312 Z M 363.476562 41.195312 " fill-opacity="1" fill-rule="nonzero"/></g><path fill="#e7e626" d="M 155.425781 274.890625 L 117.777344 269.808594 C 116.332031 269.613281 115.042969 268.714844 114.417969 267.386719 L 97.957031 233.101562 C 94.246094 225.359375 83.21875 225.359375 79.507812 233.101562 L 63.007812 267.347656 C 62.382812 268.675781 61.132812 269.574219 59.6875 269.769531 L 22.039062 274.851562 C 13.519531 276.023438 10.078125 286.503906 16.292969 292.445312 L 43.777344 318.714844 C 44.832031 319.730469 45.300781 321.214844 45.066406 322.664062 L 38.265625 360.035156 C 36.738281 368.480469 45.652344 374.96875 53.199219 370.902344 L 86.660156 352.882812 C 87.949219 352.175781 89.515625 352.175781 90.804688 352.882812 L 124.269531 370.902344 C 131.8125 374.96875 140.726562 368.519531 139.199219 360.074219 L 132.398438 322.703125 C 132.125 321.253906 132.632812 319.769531 133.6875 318.753906 L 161.171875 292.484375 C 167.347656 286.503906 163.945312 276.023438 155.425781 274.890625 Z M 155.425781 274.890625 " fill-opacity="1" fill-rule="nonzero"/></svg>