<svg xmlns="http://www.w3.org/2000/svg" xmlns:xlink="http://www.w3.org/1999/xlink" width="500" zoomAndPan="magnify" viewBox="0 0 375 374.999991" height="500" preserveAspectRatio="xMidYMid meet" version="1.0"><defs><clipPath id="1a5632813c"><path d="M 93.632812 184 L 284 184 L 284 297.847656 L 93.632812 297.847656 Z M 93.632812 184 " clip-rule="nonzero"/></clipPath><clipPath id="82c0aef796"><path d="M 245.414062 166.296875 L 375 166.296875 L 375 258 L 245.414062 258 Z M 245.414062 166.296875 " clip-rule="nonzero"/></clipPath></defs><path fill="#f4763f" d="M 133.988281 131.816406 C 133.988281 101.613281 158.476562 77.128906 188.675781 77.128906 C 218.882812 77.128906 243.371094 101.613281 243.371094 131.816406 C 243.371094 162.019531 218.882812 186.507812 188.675781 186.507812 C 158.476562 186.507812 133.988281 162.019531 133.988281 131.816406 " fill-opacity="1" fill-rule="nonzero"/><g clip-path="url(#1a5632813c)"><path fill="#f4763f" d="M 282.671875 267.945312 L 274.875 237.882812 C 268.515625 213.390625 251.363281 193.960938 229.308594 184.152344 C 218.089844 192.878906 203.996094 198.089844 188.675781 198.089844 C 173.363281 198.089844 159.269531 192.878906 148.046875 184.152344 C 125.992188 193.960938 108.839844 213.390625 102.484375 237.882812 L 94.6875 267.945312 C 90.757812 283.078125 102.183594 297.84375 117.820312 297.84375 L 259.539062 297.84375 C 275.175781 297.84375 286.597656 283.078125 282.671875 267.945312 " fill-opacity="1" fill-rule="nonzero"/></g><path fill="#f4763f" d="M 34.644531 124.8125 C 34.644531 100.636719 54.242188 81.039062 78.417969 81.039062 C 102.59375 81.039062 122.195312 100.636719 122.195312 124.8125 C 122.195312 148.988281 102.59375 168.585938 78.417969 168.585938 C 54.242188 168.585938 34.644531 148.988281 34.644531 124.8125 " fill-opacity="1" fill-rule="nonzero"/><path fill="#f4763f" d="M 92.453125 237.480469 C 98.535156 214.046875 113.035156 194.570312 132.203125 181.9375 C 126.230469 175.492188 119 170.285156 110.941406 166.703125 C 101.957031 173.6875 90.679688 177.859375 78.417969 177.859375 C 66.15625 177.859375 54.878906 173.6875 45.894531 166.703125 C 28.246094 174.550781 14.515625 190.101562 9.429688 209.710938 L 3.183594 233.769531 C 0.0429688 245.882812 9.1875 257.703125 21.699219 257.703125 L 87.207031 257.703125 L 92.453125 237.480469 " fill-opacity="1" fill-rule="nonzero"/><path fill="#f4763f" d="M 342.980469 124.8125 C 342.980469 100.636719 323.382812 81.039062 299.207031 81.039062 C 275.03125 81.039062 255.429688 100.636719 255.429688 124.8125 C 255.429688 148.988281 275.03125 168.585938 299.207031 168.585938 C 323.382812 168.585938 342.980469 148.988281 342.980469 124.8125 " fill-opacity="1" fill-rule="nonzero"/><g clip-path="url(#82c0aef796)"><path fill="#f4763f" d="M 285.167969 237.480469 C 279.09375 214.046875 264.589844 194.570312 245.421875 181.9375 C 251.394531 175.492188 258.625 170.285156 266.683594 166.703125 C 275.667969 173.6875 286.945312 177.859375 299.207031 177.859375 C 311.46875 177.859375 322.746094 173.6875 331.730469 166.703125 C 349.378906 174.550781 363.109375 190.101562 368.199219 209.710938 L 374.441406 233.769531 C 377.585938 245.882812 368.4375 257.703125 355.921875 257.703125 L 290.421875 257.703125 L 285.167969 237.480469 " fill-opacity="1" fill-rule="nonzero"/></g></svg>