<svg xmlns="http://www.w3.org/2000/svg" xmlns:xlink="http://www.w3.org/1999/xlink" width="500" zoomAndPan="magnify" viewBox="0 0 375 374.999991" height="500" preserveAspectRatio="xMidYMid meet" version="1.0"><path fill="#f03b7b" d="M 374.984375 138.855469 C 374.984375 139.757812 374.921875 140.660156 374.710938 141.5625 L 353.738281 247.121094 C 352.761719 252.054688 349.988281 256.289062 346.167969 259.277344 C 346.167969 259.277344 295.398438 298.792969 278.875 312.472656 C 274.632812 316.011719 256.925781 327.75 256.925781 344.554688 L 256.925781 354.140625 L 194.417969 354.140625 L 194.417969 305.316406 C 194.417969 273.644531 208.097656 256.636719 222.753906 246.148438 C 237.820312 235.242188 283.726562 203.851562 283.726562 203.851562 C 286.015625 202.253906 288.734375 201.351562 291.644531 201.351562 C 299.285156 201.351562 305.53125 207.601562 305.53125 215.242188 C 305.53125 220.523438 303.097656 223.640625 299.632812 226.558594 L 259.558594 258.433594 C 257.828125 259.753906 256.925781 261.835938 256.925781 263.851562 C 256.925781 267.671875 259.980469 270.796875 263.871094 270.796875 C 265.394531 270.796875 266.925781 270.316406 268.175781 269.269531 C 268.175781 269.269531 299.292969 244.820312 309.496094 236.417969 C 311.933594 234.476562 314.429688 231.347656 315.816406 228.710938 C 318.808594 223.15625 321.652344 212.808594 347.972656 134.398438 C 349.851562 128.910156 354.984375 124.953125 361.097656 124.953125 C 368.738281 124.953125 374.984375 131.199219 374.984375 138.839844 Z M 374.984375 138.855469 " fill-opacity="1" fill-rule="nonzero"/><path fill="#f03b7b" d="M 180.53125 305.324219 L 180.53125 354.148438 L 118.023438 354.148438 L 118.023438 344.5625 C 118.023438 327.757812 100.316406 316.019531 96.074219 312.480469 C 79.550781 298.800781 28.78125 259.285156 28.78125 259.285156 C 24.960938 256.296875 22.1875 252.0625 21.214844 247.128906 L 0.238281 141.570312 C 0.0273438 140.667969 -0.0351562 139.765625 -0.0351562 138.863281 C -0.0351562 131.222656 6.210938 124.972656 13.851562 124.972656 C 19.964844 124.972656 25.105469 128.929688 26.976562 134.421875 C 53.296875 212.828125 56.140625 223.171875 59.132812 228.734375 C 60.519531 231.378906 63.023438 234.496094 65.453125 236.441406 C 75.65625 244.839844 106.773438 269.289062 106.773438 269.289062 C 108.023438 270.328125 109.554688 270.820312 111.078125 270.820312 C 114.96875 270.820312 118.023438 267.691406 118.023438 263.871094 C 118.023438 261.855469 117.121094 259.777344 115.390625 258.457031 L 75.316406 226.582031 C 71.84375 223.664062 69.417969 220.535156 69.417969 215.265625 C 69.417969 207.621094 75.664062 201.375 83.304688 201.375 C 86.222656 201.375 88.933594 202.277344 91.222656 203.875 C 91.222656 203.875 137.128906 235.261719 152.195312 246.167969 C 166.851562 256.65625 180.53125 273.671875 180.53125 305.335938 Z M 180.53125 305.324219 " fill-opacity="1" fill-rule="nonzero"/><path fill="#f03b7b" d="M 236.085938 180.53125 L 236.085938 219.769531 C 227.46875 225.742188 219.488281 231.371094 214.628906 234.910156 C 202.199219 243.800781 193.097656 254.980469 187.472656 268.3125 C 181.84375 254.980469 172.742188 243.800781 160.25 234.835938 C 155.386719 231.296875 147.398438 225.738281 138.855469 219.761719 L 138.855469 180.523438 C 138.855469 153.648438 160.59375 131.90625 187.472656 131.90625 C 214.347656 131.90625 236.085938 153.648438 236.085938 180.523438 Z M 236.085938 180.53125 " fill-opacity="1" fill-rule="nonzero"/><path fill="#f03b7b" d="M 149.761719 130.730469 C 134.695312 142.121094 124.964844 160.25 124.964844 180.523438 L 124.964844 210.179688 C 111.699219 201.011719 100.035156 193.023438 99.058594 192.398438 C 94.472656 189.203125 88.992188 187.464844 83.292969 187.464844 C 75.027344 187.464844 67.523438 191.148438 62.453125 196.910156 C 61.625 194.550781 49.121094 156.769531 40.15625 129.964844 C 39.8125 128.988281 39.464844 128.085938 38.980469 127.183594 C 47.726562 105.515625 68.984375 90.238281 93.707031 90.238281 C 119.816406 90.238281 141.976562 107.183594 149.746094 130.730469 Z M 149.761719 130.730469 " fill-opacity="1" fill-rule="nonzero"/><path fill="#f03b7b" d="M 339.914062 120.941406 C 337.6875 123.515625 336.019531 126.570312 334.84375 129.898438 C 325.8125 156.773438 313.320312 194.554688 312.480469 196.917969 C 307.410156 191.15625 299.914062 187.472656 291.644531 187.472656 C 285.953125 187.472656 280.460938 189.203125 275.804688 192.46875 C 274.902344 193.097656 263.238281 201.011719 249.96875 210.179688 L 249.96875 180.523438 C 249.96875 162.886719 242.609375 146.910156 230.800781 135.519531 C 236.976562 109.546875 260.320312 90.238281 288.160156 90.238281 C 310.457031 90.238281 329.902344 102.671875 339.90625 120.9375 Z M 339.914062 120.941406 " fill-opacity="1" fill-rule="nonzero"/><path fill="#f03b7b" d="M 215.25 76.359375 C 215.25 61.015625 202.8125 48.578125 187.472656 48.578125 C 172.128906 48.578125 159.691406 61.015625 159.691406 76.359375 L 159.691406 90.246094 C 159.691406 105.589844 172.128906 118.023438 187.472656 118.023438 C 202.8125 118.023438 215.25 105.589844 215.25 90.246094 Z M 215.25 76.359375 " fill-opacity="1" fill-rule="nonzero"/><path fill="#f03b7b" d="M 124.964844 31.214844 C 124.964844 13.953125 110.976562 -0.0351562 93.714844 -0.0351562 C 76.453125 -0.0351562 62.460938 13.953125 62.460938 31.214844 L 62.460938 45.105469 C 62.460938 62.367188 76.453125 76.359375 93.714844 76.359375 C 110.976562 76.359375 124.964844 62.367188 124.964844 45.105469 Z M 124.964844 31.214844 " fill-opacity="1" fill-rule="nonzero"/><path fill="#f03b7b" d="M 319.421875 31.214844 C 319.421875 13.953125 305.429688 -0.0351562 288.167969 -0.0351562 C 270.90625 -0.0351562 256.917969 13.953125 256.917969 31.214844 L 256.917969 45.105469 C 256.917969 62.367188 270.90625 76.359375 288.167969 76.359375 C 305.429688 76.359375 319.421875 62.367188 319.421875 45.105469 Z M 319.421875 31.214844 " fill-opacity="1" fill-rule="nonzero"/><path fill="#f03b7b" d="M 56.65625 359.933594 C 60.128906 352.992188 67.070312 339.097656 70.542969 332.15625 C 72.253906 328.738281 75.75 326.371094 79.824219 326.371094 C 85.582031 326.371094 90.238281 331.035156 90.238281 336.785156 C 90.238281 338.460938 89.804688 340.011719 89.105469 341.421875 C 85.632812 348.363281 78.691406 362.257812 75.214844 369.199219 C 73.503906 372.617188 70.007812 374.984375 65.9375 374.984375 C 60.179688 374.984375 55.519531 370.320312 55.519531 364.570312 C 55.519531 362.894531 55.953125 361.34375 56.65625 359.933594 Z M 56.65625 359.933594 " fill-opacity="1" fill-rule="nonzero"/><path fill="#f03b7b" d="M 48.574219 302.066406 C 48.574219 296.308594 43.90625 291.652344 38.15625 291.652344 C 36.480469 291.652344 34.929688 292.082031 33.527344 292.785156 C 26.585938 296.257812 12.691406 303.199219 5.75 306.671875 C 2.332031 308.386719 -0.0351562 311.882812 -0.0351562 315.953125 C -0.0351562 321.710938 4.628906 326.371094 10.378906 326.371094 C 12.054688 326.371094 13.609375 325.9375 15.007812 325.234375 C 21.949219 321.761719 35.847656 314.820312 42.785156 311.347656 C 46.203125 309.636719 48.574219 306.140625 48.574219 302.066406 Z M 48.574219 302.066406 " fill-opacity="1" fill-rule="nonzero"/><path fill="#f03b7b" d="M 318.296875 359.933594 C 314.820312 352.992188 307.878906 339.097656 304.40625 332.15625 C 302.695312 328.738281 299.199219 326.371094 295.125 326.371094 C 289.367188 326.371094 284.710938 331.035156 284.710938 336.785156 C 284.710938 338.460938 285.144531 340.011719 285.84375 341.421875 C 289.316406 348.363281 296.257812 362.257812 299.734375 369.199219 C 301.445312 372.617188 304.941406 374.984375 309.015625 374.984375 C 314.769531 374.984375 319.429688 370.320312 319.429688 364.570312 C 319.429688 362.894531 318.996094 361.34375 318.296875 359.933594 Z M 318.296875 359.933594 " fill-opacity="1" fill-rule="nonzero"/><path fill="#f03b7b" d="M 326.371094 302.066406 C 326.371094 296.308594 331.035156 291.652344 336.785156 291.652344 C 338.460938 291.652344 340.011719 292.082031 341.414062 292.785156 C 348.355469 296.257812 362.253906 303.199219 369.191406 306.671875 C 372.609375 308.386719 374.976562 311.882812 374.976562 315.953125 C 374.976562 321.710938 370.3125 326.371094 364.5625 326.371094 C 362.886719 326.371094 361.335938 325.9375 359.933594 325.234375 C 352.992188 321.761719 339.097656 314.820312 332.15625 311.347656 C 328.738281 309.636719 326.371094 306.140625 326.371094 302.066406 Z M 326.371094 302.066406 " fill-opacity="1" fill-rule="nonzero"/></svg>