<svg xmlns="http://www.w3.org/2000/svg" xmlns:xlink="http://www.w3.org/1999/xlink" width="500" zoomAndPan="magnify" viewBox="0 0 375 374.999991" height="500" preserveAspectRatio="xMidYMid meet" version="1.0"><defs><clipPath id="7da895bb30"><path d="M 9.609375 214 L 139 214 L 139 319 L 9.609375 319 Z M 9.609375 214 " clip-rule="nonzero"/></clipPath><clipPath id="179c8b45c8"><path d="M 236 21 L 365.109375 21 L 365.109375 126 L 236 126 Z M 236 21 " clip-rule="nonzero"/></clipPath></defs><path fill="#b3307f" d="M 143.03125 176.820312 L 202.957031 176.820312 C 211.574219 176.820312 218.585938 169.808594 218.585938 161.191406 L 218.585938 122.328125 C 218.585938 113.710938 211.574219 106.699219 202.957031 106.699219 L 115.390625 106.699219 C 106.773438 106.699219 99.761719 113.710938 99.761719 122.328125 L 99.761719 161.191406 C 99.761719 169.808594 106.773438 176.820312 115.390625 176.820312 C 116.445312 176.820312 117.425781 177.371094 117.972656 178.273438 C 118.523438 179.175781 118.558594 180.300781 118.074219 181.238281 L 111.878906 193.171875 L 141.601562 177.179688 C 142.039062 176.945312 142.53125 176.820312 143.03125 176.820312 Z M 117.980469 123.261719 L 200.367188 123.261719 C 202.039062 123.261719 203.390625 124.617188 203.390625 126.285156 C 203.390625 127.957031 202.039062 129.308594 200.367188 129.308594 L 117.980469 129.308594 C 116.308594 129.308594 114.957031 127.957031 114.957031 126.285156 C 114.957031 124.617188 116.308594 123.261719 117.980469 123.261719 Z M 117.980469 157.632812 C 116.308594 157.632812 114.957031 156.28125 114.957031 154.609375 C 114.957031 152.941406 116.308594 151.585938 117.980469 151.585938 L 200.367188 151.585938 C 202.039062 151.585938 203.390625 152.941406 203.390625 154.609375 C 203.390625 156.28125 202.039062 157.632812 200.367188 157.632812 Z M 117.980469 157.632812 " fill-opacity="1" fill-rule="nonzero"/><path fill="#b3307f" d="M 172.050781 265.464844 L 259.617188 265.464844 C 268.238281 265.464844 275.25 258.453125 275.25 249.835938 L 275.25 210.972656 C 275.25 202.355469 268.238281 195.34375 259.617188 195.34375 C 258.5625 195.34375 257.582031 194.792969 257.035156 193.890625 C 256.484375 192.988281 256.449219 191.863281 256.933594 190.925781 L 263.132812 178.992188 L 233.410156 194.984375 C 232.96875 195.21875 232.476562 195.34375 231.976562 195.34375 L 172.050781 195.34375 C 163.433594 195.34375 156.421875 202.355469 156.421875 210.972656 L 156.421875 249.835938 C 156.421875 258.453125 163.433594 265.464844 172.050781 265.464844 Z M 174.640625 213.140625 L 257.03125 213.140625 C 258.699219 213.140625 260.054688 214.492188 260.054688 216.164062 C 260.054688 217.832031 258.699219 219.1875 257.03125 219.1875 L 174.640625 219.1875 C 172.972656 219.1875 171.617188 217.832031 171.617188 216.164062 C 171.617188 214.492188 172.972656 213.140625 174.640625 213.140625 Z M 174.640625 241.464844 L 257.03125 241.464844 C 258.699219 241.464844 260.054688 242.816406 260.054688 244.488281 C 260.054688 246.15625 258.699219 247.511719 257.03125 247.511719 L 174.640625 247.511719 C 172.972656 247.511719 171.617188 246.15625 171.617188 244.488281 C 171.617188 242.816406 172.972656 241.464844 174.640625 241.464844 Z M 174.640625 241.464844 " fill-opacity="1" fill-rule="nonzero"/><path fill="#b3307f" d="M 17.285156 187.5 C 17.285156 202.265625 19.253906 216.792969 22.988281 230.761719 C 30.429688 222.949219 39.648438 216.84375 49.984375 213.089844 C 48.398438 204.722656 47.566406 196.164062 47.566406 187.5 C 47.566406 154.851562 59.25 123.171875 80.457031 98.300781 C 101.429688 73.710938 130.394531 57.195312 162.019531 51.804688 C 162.894531 51.652344 163.796875 51.898438 164.476562 52.472656 C 165.15625 53.046875 165.550781 53.890625 165.550781 54.785156 L 165.550781 66.785156 C 165.550781 67.75 165.726562 69.367188 166.898438 69.367188 C 167.4375 69.367188 168.144531 69.132812 168.882812 68.707031 L 224.464844 36.613281 C 225.746094 35.878906 226.199219 35.117188 226.199219 34.691406 C 226.199219 34.265625 225.746094 33.507812 224.464844 32.769531 L 168.882812 0.675781 C 168.144531 0.25 167.4375 0.015625 166.898438 0.015625 C 165.726562 0.015625 165.550781 1.632812 165.550781 2.597656 L 165.550781 18.039062 C 165.550781 19.550781 164.429688 20.835938 162.925781 21.035156 C 79.894531 32.101562 17.285156 103.667969 17.285156 187.5 Z M 17.285156 187.5 " fill-opacity="1" fill-rule="nonzero"/><path fill="#b3307f" d="M 353.1875 187.5 C 353.1875 171.125 350.769531 155.042969 346.199219 139.695312 C 338.175781 146.390625 328.753906 151.207031 318.695312 153.820312 C 321.453125 164.71875 322.902344 176.023438 322.902344 187.5 C 322.902344 220.148438 311.222656 251.828125 290.011719 276.699219 C 269.042969 301.289062 240.078125 317.804688 208.453125 323.195312 C 207.578125 323.347656 206.675781 323.101562 205.996094 322.527344 C 205.3125 321.953125 204.921875 321.109375 204.921875 320.214844 L 204.921875 308.214844 C 204.921875 307.25 204.746094 305.632812 203.574219 305.632812 C 203.03125 305.632812 202.328125 305.867188 201.589844 306.292969 L 146.003906 338.386719 C 144.722656 339.125 144.269531 339.882812 144.269531 340.308594 C 144.269531 340.734375 144.722656 341.492188 146.003906 342.230469 L 201.589844 374.324219 C 202.328125 374.75 203.03125 374.984375 203.574219 374.984375 C 204.03125 374.984375 204.230469 374.820312 204.371094 374.640625 C 204.71875 374.207031 204.921875 373.390625 204.921875 372.398438 L 204.921875 356.960938 C 204.921875 355.445312 206.042969 354.164062 207.546875 353.964844 C 290.574219 342.898438 353.1875 271.332031 353.1875 187.5 Z M 353.1875 187.5 " fill-opacity="1" fill-rule="nonzero"/><g clip-path="url(#7da895bb30)"><path fill="#b3307f" d="M 9.609375 279.253906 C 9.609375 293.785156 14.46875 307.699219 23.367188 318.980469 L 24.253906 315.789062 C 27.84375 301.609375 42.734375 290.023438 57.433594 290.023438 L 57.558594 290.023438 C 58.566406 290.023438 59.507812 290.523438 60.070312 291.363281 L 73.914062 312.011719 L 87.761719 291.363281 C 88.324219 290.523438 89.265625 290.023438 90.273438 290.023438 L 90.390625 290.023438 C 105.089844 290.023438 119.988281 301.609375 123.597656 315.855469 L 124.464844 318.984375 C 133.363281 307.683594 138.222656 293.769531 138.222656 279.253906 C 138.222656 243.792969 109.375 214.945312 73.914062 214.945312 C 38.457031 214.949219 9.609375 243.792969 9.609375 279.253906 Z M 73.914062 222.085938 C 90.097656 222.085938 99.761719 232.117188 99.761719 248.917969 C 99.761719 268.140625 88.46875 290.484375 73.914062 290.484375 C 59.355469 290.484375 48.066406 268.140625 48.066406 248.917969 C 48.066406 232.117188 57.726562 222.085938 73.914062 222.085938 Z M 73.914062 222.085938 " fill-opacity="1" fill-rule="nonzero"/></g><path fill="#b3307f" d="M 119.683594 324.414062 L 117.75 317.402344 C 114.933594 306.285156 103.300781 296.871094 91.855469 296.117188 L 76.425781 319.128906 C 75.863281 319.964844 74.921875 320.46875 73.914062 320.46875 C 72.90625 320.46875 71.964844 319.964844 71.402344 319.128906 L 55.976562 296.117188 C 44.53125 296.867188 32.898438 306.28125 30.097656 317.339844 L 28.140625 324.398438 C 40.164062 336.601562 56.730469 343.5625 73.914062 343.5625 C 91.082031 343.558594 107.652344 336.605469 119.683594 324.414062 Z M 119.683594 324.414062 " fill-opacity="1" fill-rule="nonzero"/><path fill="#b3307f" d="M 93.710938 248.914062 C 93.710938 231.738281 82.945312 228.132812 73.914062 228.132812 C 64.878906 228.132812 54.113281 231.738281 54.113281 248.914062 C 54.113281 264.570312 63.4375 284.433594 73.914062 284.433594 C 84.390625 284.433594 93.710938 264.570312 93.710938 248.914062 Z M 93.710938 248.914062 " fill-opacity="1" fill-rule="nonzero"/><g clip-path="url(#179c8b45c8)"><path fill="#b3307f" d="M 250.535156 125.449219 L 251.417969 122.257812 C 255.011719 108.082031 269.902344 96.492188 284.597656 96.492188 L 284.726562 96.492188 C 285.734375 96.492188 286.675781 96.996094 287.238281 97.832031 L 301.082031 118.484375 L 314.929688 97.832031 C 315.492188 96.996094 316.433594 96.492188 317.441406 96.492188 L 317.554688 96.492188 C 332.257812 96.492188 347.15625 108.082031 350.765625 122.324219 L 351.628906 125.457031 C 360.53125 114.152344 365.390625 100.238281 365.390625 85.722656 C 365.390625 50.265625 336.542969 21.417969 301.082031 21.417969 C 265.625 21.417969 236.777344 50.265625 236.777344 85.722656 C 236.777344 100.257812 241.636719 114.167969 250.535156 125.449219 Z M 301.082031 28.554688 C 317.265625 28.554688 326.925781 38.585938 326.925781 55.386719 C 326.925781 74.609375 315.636719 96.953125 301.082031 96.953125 C 286.523438 96.953125 275.234375 74.609375 275.234375 55.386719 C 275.234375 38.585938 284.894531 28.554688 301.082031 28.554688 Z M 301.082031 28.554688 " fill-opacity="1" fill-rule="nonzero"/></g><path fill="#b3307f" d="M 346.851562 130.886719 L 344.917969 123.871094 C 342.101562 112.757812 330.46875 103.34375 319.023438 102.589844 L 303.59375 125.597656 C 303.03125 126.4375 302.089844 126.9375 301.082031 126.9375 C 300.074219 126.9375 299.132812 126.433594 298.570312 125.597656 L 283.144531 102.589844 C 271.699219 103.335938 260.066406 112.75 257.261719 123.8125 L 255.304688 130.871094 C 267.332031 143.070312 283.898438 150.03125 301.082031 150.03125 C 318.25 150.03125 334.816406 143.074219 346.851562 130.886719 Z M 346.851562 130.886719 " fill-opacity="1" fill-rule="nonzero"/><path fill="#b3307f" d="M 281.28125 55.386719 C 281.28125 71.042969 290.605469 90.90625 301.082031 90.90625 C 311.558594 90.90625 320.878906 71.042969 320.878906 55.386719 C 320.878906 38.210938 310.113281 34.605469 301.082031 34.605469 C 292.046875 34.605469 281.28125 38.210938 281.28125 55.386719 Z M 281.28125 55.386719 " fill-opacity="1" fill-rule="nonzero"/></svg>